<svg width="16" height="10" viewBox="0 0 16 10" xmlns="http://www.w3.org/2000/svg"><g fill="none"><path fill="#FFF" d="M0 10V0h16v10z"/><path d="M0 .761V.098l5.843 3.517H4.736L0 .761zm5.592 5.824h1.107L1.011 10H0v-.059l5.592-3.356z" fill="#CF142B"/><path d="M9.303 0h5.602L9.303 3.361V0zM1.25 0h5.579v3.361L1.25 0zm10.939 3.615l3.801-2.294v2.294h-3.801zm0 2.97h3.801v2.269l-3.801-2.269zM1.566 10l5.263-3.16V10H1.566zm7.737 0V6.84L14.582 10H9.303zM0 6.585h3.933L0 8.956V6.585zm0-2.97V1.24l3.933 2.375H0z" fill="#00247D"/><path d="M15.626 0h.365v.445l-5.287 3.17H9.598L15.626 0zm-5.172 6.585h1.105l4.431 2.656v.663l-5.536-3.319z" fill="#CF142B"/><path fill="#CF142B" d="M7.325 0h1.483v4.209H16v1.783H8.808V10H7.325V5.992H0V4.209h7.325z"/></g></svg>