<?xml version="1.0" encoding="UTF-8" standalone="no"?>
<svg width="145px" height="30px" viewBox="0 0 145 30" version="1.1" xmlns="http://www.w3.org/2000/svg" xmlns:xlink="http://www.w3.org/1999/xlink" xmlns:sketch="http://www.bohemiancoding.com/sketch/ns">
    <!-- Generator: Sketch 3.3.3 (12081) - http://www.bohemiancoding.com/sketch -->
    <title>seznam</title>
    <desc>Created with Sketch.</desc>
    <defs></defs>
    <g id="Mobile" stroke="none" stroke-width="1" fill="none" fill-rule="evenodd" sketch:type="MSPage">
        <g id="[Secure]-M-Choose" sketch:type="MSArtboardGroup" transform="translate(-16.000000, -18.000000)">
            <g id="seznam" sketch:type="MSLayerGroup" transform="translate(16.000000, 18.000000)">
                <path d="M14.3434921,1.92769231 C13.5256614,2.06 12.7143519,2.21461538 11.9061111,2.39038462 C11.3713757,2.505 10.8370238,2.61192308 10.3088095,2.74615385 C9.82202381,2.87038462 9.32219577,2.98038462 8.845,3.13346154 C8.38353175,3.28038462 7.92858466,3.43192308 7.47670635,3.60730769 C6.59865079,3.95192308 5.76509259,4.44 5.04277778,5.04923077 C4.60048942,5.42423077 4.1869709,5.83115385 3.83981481,6.30153846 C3.59507937,6.63807692 3.39138889,6.98423077 3.19421958,7.35269231 C3.00970899,7.70192308 2.8823545,8.11538462 2.87890212,8.51576923 C2.87276455,9.69307692 3.61387566,10.6788462 4.46699735,11.4107692 C4.74702381,11.65 5.04584656,11.8703846 5.34812169,12.0807692 C6.24535714,12.7061538 7.22238095,13.255 8.21513228,13.7334615 C9.23972222,14.2246154 10.2704497,14.6969231 11.3142196,15.1465385 C12.3004497,15.5696154 13.3093122,15.9284615 14.327381,16.2696154 C14.6200661,16.3669231 14.9162037,16.4642308 15.2088889,16.5615385 C16.1314418,16.8711538 17.0735582,17.1569231 17.9899735,17.4915385 C18.5592328,17.6992308 19.1672354,17.8938462 19.7364947,18.1538462 C20.3283862,18.4234615 20.9425265,18.6926923 21.4646032,19.0803846 C21.8144444,19.3353846 22.1167196,19.6546154 22.3392063,20.0265385 C22.5590079,20.3930769 22.6955688,20.8130769 22.7051587,21.2419231 C22.7182011,21.6534615 22.6004365,22.0538462 22.3806349,22.4019231 C21.8079233,23.3042308 20.8121032,23.92 19.8511905,24.33 C18.4161508,24.9407692 16.9462037,25.4688462 15.4505556,25.9126923 C14.5978175,26.1646154 13.7450794,26.4146154 12.8862037,26.64 C12.0238757,26.8661538 11.1454365,27.1042308 10.2739021,27.3242308 C9.40505291,27.5446154 8.5362037,27.7434615 7.66466931,27.9334615 C7.16522487,28.0403846 6.66232804,28.1469231 6.16595238,28.2511538 C5.86674603,28.3115385 5.57406085,28.3753846 5.2752381,28.4407692 C4.65150794,28.5776923 4.02777778,28.7134615 3.40097884,28.8484615 C2.68825397,29.0069231 1.9751455,29.1611538 1.26280423,29.3180769 C1.05566138,29.3638462 0.848902116,29.4196154 0.642142857,29.4661538 C0.457632275,29.5088462 -0.232843915,29.6703846 0.279642857,29.6396154 C0.991984127,29.5996154 2.89501323,29.4323077 6.96153439,28.8838462 C8.43455026,28.6384615 9.9140873,28.4265385 11.3905556,28.1838462 C13.2295238,27.8811538 15.0562169,27.525 16.8694841,27.0915385 C17.3884921,26.9684615 17.903664,26.8361538 18.4192196,26.6942308 C18.7598545,26.5984615 19.097037,26.4996154 19.4311508,26.3942308 C20.8566005,25.9488462 23.1443783,25.1623077 23.6852513,24.925 C25.7536111,24.0123077 27.0421164,23.325 27.7137963,21.6884615 C27.9428042,21.1076923 28.0509788,20.4569231 27.9807804,19.8334615 C27.9109656,19.2623077 27.7199339,18.685 27.4241799,18.1919231 C27.1407011,17.7180769 26.7525,17.3130769 26.3485714,16.9396154 C25.594418,16.2473077 24.7482011,15.6876923 23.8444444,15.2138462 C23.590119,15.0796154 23.3288889,14.9519231 23.0649735,14.8307692 C22.7369974,14.6796154 22.4094048,14.5373077 22.0783598,14.3969231 C21.610754,14.2007692 21.1396958,14.03 20.6625,13.8657692 C19.4215608,13.4384615 18.1614418,13.0553846 16.9143651,12.6453846 C16.2077778,12.4126923 15.5080952,12.1607692 14.8268254,11.8703846 C14.5375926,11.7488462 14.251045,11.6180769 13.9710185,11.4811538 C13.6403571,11.32 13.3189021,11.1430769 13.0005159,10.9530769 C12.609246,10.7153846 11.9697884,10.3053846 12.1477778,9.74884615 C12.2720635,9.35153846 12.7013095,9.19692308 13.0515344,9.05461538 C13.3760582,8.92230769 13.7197619,8.82961538 14.0569444,8.74076923 C15.0880556,8.47423077 16.1410317,8.29423077 17.1813492,8.07038462 C17.4870767,8.005 17.7924206,7.93807692 18.0981481,7.86653846 C18.9094577,7.675 19.7460847,7.53115385 20.519418,7.22192308 C21.1845767,6.95884615 22.0369312,6.53769231 22.2855026,5.80384615 C22.6414815,4.73346154 22.2375529,3.57692308 21.6552513,2.67423077 C21.4454233,2.35038462 21.2290741,2.03307692 21.0062037,1.71538462 C20.7008598,1.28461538 20.3632937,0.879615385 20.0326323,0.469615385 C19.8830291,0.283076923 19.7015873,0.297307692 19.5489153,0.345 C19.3452249,0.415384615 18.7886243,1.07115385 14.3434921,1.92769231" id="Fill-2" fill="#C9232A" sketch:type="MSShapeGroup"></path>
                <path d="M76.3958201,16.7211538 C76.3958201,16.7211538 76.5174206,16.7530769 76.5174206,16.7546154 C76.9781217,16.8873077 77.2044444,17.1996154 76.8515344,17.6080769 C76.7399074,17.7392308 76.6505291,17.8853846 76.5615344,18.0276923 L76.4851984,18.1565385 C76.4088624,18.2846154 76.3517063,18.4038462 76.3390476,18.5542308 C76.3390476,18.5542308 76.3448016,18.6323077 76.3448016,18.6338462 C76.3674339,18.8426923 76.5331481,19.0661538 76.6348016,19.2446154 C76.8476984,19.6119231 77.0709524,19.9384615 77.3187566,20.275 C77.3571164,20.3292308 77.9010582,19.4246154 77.9363492,19.3738462 C78.1304497,19.1023077 78.3560053,18.8623077 78.556627,18.5969231 C78.8075,18.2634615 79.0817725,17.9480769 79.4442725,17.7357692 C79.8071561,17.5219231 80.2237434,17.4369231 80.6410979,17.3926923 C81.0546164,17.3461538 81.4681349,17.3273077 81.8785847,17.305 C82.724418,17.2603846 83.5652646,17.1642308 84.4049603,17.0819231 C84.7294841,17.0496154 85.2097487,16.9684615 85.5028175,17.1296154 C85.7859127,17.2842308 86.0022619,17.5519231 86.2220635,17.7819231 C86.4855952,18.0611538 86.743373,18.3469231 86.9919444,18.6380769 C87.288082,18.9830769 87.5516138,19.3515385 87.8792063,19.6703846 C88.0859656,19.8746154 88.2996296,20.0534615 88.5347751,20.2253846 L88.6559921,20.3038462 C89.0725794,20.5126923 89.3656481,20.2384615 89.4546429,19.8138462 C89.5819974,19.1873077 89.2283201,18.5780769 88.9390873,18.05 C88.7833466,17.7646154 88.6306746,17.4626923 88.5002513,17.1657692 C88.3855556,16.9188462 88.2708598,16.5392308 88.4749339,16.3030769 C88.6337434,16.1230769 88.9609524,16.1134615 89.1776852,16.0561538 C89.4350794,15.9873077 89.6871032,15.9092308 89.944881,15.8565385 C90.4600529,15.75 90.9717725,15.6107692 91.496918,15.5442308 C91.7899868,15.5088462 92.2702513,15.2903846 92.5218915,15.5484615 C92.8525529,15.8819231 92.537619,16.5107692 92.4102646,16.8676923 C92.2035053,17.4626923 91.9936772,18.08 91.9273148,18.7103846 C91.8693915,19.2842308 92.0094048,19.9019231 92.3722884,20.3596154 C92.6396561,20.6965385 93.0884656,20.9865385 93.5081217,20.7423077 C93.8422354,20.5461538 94.0869709,20.1269231 94.2369577,19.7792308 C94.5173677,19.1153846 94.7110847,18.4265385 94.9335714,17.7434615 C95.1338095,17.1280769 95.341336,16.5138462 95.5699603,15.9061538 C95.7383598,15.4626923 95.9324603,15.0269231 96.101627,14.585 C96.2098016,14.2980769 96.3594048,14.03 96.4771693,13.7476923 C96.5723016,13.5084615 96.6045238,13.1973077 96.8396693,13.0473077 C97.1258333,12.8673077 97.4787434,13.3888462 97.6160714,13.5707692 C97.8765344,13.9103846 98.1089947,14.2661538 98.3479762,14.6203846 C98.6115079,15.0030769 98.8504894,15.5103846 99.2770503,15.7288462 C100.012024,16.1084615 100.670661,15.2215385 101.08418,14.7461538 C101.371111,14.4211538 101.660344,14.0857692 101.956098,13.7603846 C102.270648,13.4111538 102.592103,13.065 102.904735,12.7157692 C103.107659,12.4923077 103.375026,12.0538462 103.70914,12.0473077 C103.998373,12.0423077 104.065886,12.36 104.091587,12.5880769 C104.218558,13.6773077 104.265741,14.7861538 104.428386,15.8792308 C104.492063,16.2853846 104.571468,16.6892308 104.641283,17.0930769 L104.74332,17.6638462 C104.793955,17.935 104.848042,18.2061538 104.905582,18.4761538 C105.029484,19.0357692 105.160675,19.5957692 105.329074,20.1430769 C105.478294,20.6073077 105.669325,21.1092308 106.051389,21.435 C106.505952,21.8211538 107.339894,21.6919231 107.632196,21.1526923 C107.692804,21.0392308 107.718122,20.9019231 107.743823,20.7746154 C107.794841,20.5065385 107.76914,20.2253846 107.746892,19.9557692 C107.670172,18.9942308 107.403571,18.0546154 107.387077,17.0846154 C107.384392,16.6842308 107.41623,16.2869231 107.447685,15.8884615 C107.514431,14.9584615 107.632196,14.0315385 107.683214,13.1 C107.746892,11.9611538 107.848545,10.7569231 107.521336,9.64653846 C107.429272,9.32769231 107.298849,9.01961538 107.129299,8.73423077 C106.983532,8.48038462 106.799021,8.23961538 106.598399,8.02923077 C106.385503,7.80576923 106.153042,7.61115385 105.882606,7.46461538 C105.627897,7.32576923 105.296852,7.21576923 105.007619,7.20115385 C104.311005,7.16615385 103.58869,7.55384615 103.043981,7.95884615 C102.579444,8.30346154 102.159788,8.69576923 101.761997,9.11538462 C101.05541,9.86846154 100.346138,10.6453846 99.718955,11.4715385 C99.5375132,11.7123077 99.3180952,12.1476923 98.9525265,12.1015385 C98.5194444,12.0442308 98.2900529,11.39 98.1569444,11.0453846 C98.0265212,10.7169231 97.8803704,10.4011538 97.7303836,10.0838462 C97.5335979,9.68153846 97.3325926,9.28307692 97.1453968,8.87615385 C96.9888889,8.53807692 96.8300794,8.18692308 96.5880291,7.90461538 C96.311455,7.58230769 95.9550926,7.42615385 95.560754,7.29538462 C95.2807275,7.20269231 94.8829365,7.08653846 94.6094312,7.25076923 C94.2430952,7.47076923 94.3132937,8.02269231 94.291045,8.38 C94.2684127,8.69923077 94.2338889,9.00846154 94.2047354,9.32769231 C94.1253307,10.0980769 94.0781481,10.8907692 93.9059127,11.6469231 C93.8291931,11.9819231 93.7187169,12.4030769 93.4314021,12.6184615 C93.2089153,12.7842308 92.9288889,12.7619231 92.6711111,12.7730769 C92.4612831,12.7826923 92.2483862,12.7761538 92.0351058,12.77 C91.5510053,12.7588462 91.067672,12.7396154 90.583955,12.7523077 C90.1704365,12.7653846 89.7538492,12.7907692 89.3372619,12.8065385 C88.9678571,12.8226923 88.5953836,12.8592308 88.2229101,12.8592308 C87.8063228,12.8830769 87.2969048,12.95 86.9060185,12.7653846 C86.5972222,12.6169231 86.4315079,12.2819231 86.2945635,11.985 C86.0973942,11.5623077 85.8465212,11.1669231 85.6106085,10.7646154 C85.3977116,10.4057692 85.1909524,10.0453846 84.9746032,9.68961538 C84.6627381,9.17769231 84.3539418,8.66730769 84.0355556,8.16 C83.8287963,7.825 83.6124471,7.49153846 83.3899603,7.16615385 C83.2085185,6.90115385 82.979127,6.54576923 82.6607407,6.43538462 C82.3688228,6.33346154 82.0826587,6.52653846 82.0216667,6.81692308 C81.9806217,7.005 82.0247354,7.19807692 81.9863757,7.38615385 C81.9453307,7.58576923 81.8659259,7.78192308 81.7826852,7.96846154 C81.6208069,8.345 81.4044577,8.69576923 81.1850397,9.04038462 C80.4469974,10.1919231 79.8961508,11.47 79.2378968,12.6676923 C79.1132275,12.8911538 78.9828042,13.1096154 78.8585185,13.3330769 C78.690119,13.6453846 78.5792593,13.9038462 78.2098545,14.0030769 C77.8788095,14.0907692 77.5228307,14.0457692 77.1887169,14.1288462 C76.7751984,14.2326923 76.6535979,14.59 76.5841667,14.9776923 C76.5262434,15.3061538 76.5174206,15.6407692 76.4664021,15.9715385 C76.4280423,16.2107692 76.3705026,16.48 76.3958201,16.7211538 L76.3958201,16.7211538 Z M81.8179762,12.6357692 L81.8785847,12.4953846 L81.9483995,12.3742308 L82.0090079,12.2626923 L82.0696164,12.1669231 L82.111045,12.0730769 L82.1551587,12.0026923 L82.1904497,11.9342308 L82.2345635,11.8907692 L82.3431217,11.7011538 L82.4067989,11.5876923 L82.4831349,11.4761538 L82.6450132,11.1988462 L82.7439815,11.0503846 L82.8460185,10.8957692 L82.871336,10.87 L82.9058598,10.8603846 L82.9821958,10.8876923 L83.0205556,10.9130769 L83.0715741,10.9738462 L83.1732275,11.1207692 L83.2783333,11.3184615 L83.3957143,11.5876923 L83.52,11.9084615 L83.657328,12.2976923 L83.6826455,12.3661538 L83.7271429,12.4796154 L83.7846825,12.6265385 L83.8640873,12.8161538 L83.8736772,12.8515385 L83.8894048,12.8957692 L83.9151058,12.9819231 L83.9339021,13.0507692 L83.9496296,13.1207692 L83.9496296,13.1719231 L83.9592196,13.2246154 L83.9496296,13.2403846 L83.9496296,13.3107692 L83.8993783,13.3792308 L83.8640873,13.4223077 L83.7777778,13.4573077 L83.6634656,13.4926923 L83.52,13.51 L83.4310053,13.51 L83.345463,13.5180769 L82.4988624,13.5865385 L82.3366005,13.5865385 L82.2088624,13.5961538 L82.075754,13.5961538 L81.9737169,13.6042308 L81.8689947,13.5961538 L81.6718254,13.5961538 L81.5759259,13.5788462 L81.5160847,13.5611538 L81.4650661,13.5276923 L81.4359127,13.4830769 L81.4105952,13.4223077 L81.423254,13.3634615 L81.4359127,13.2834615 L81.4807937,13.1973077 L81.5444709,13.0857692 L81.601627,12.99 L81.6522619,12.9038462 L81.7032804,12.8338462 L81.7416402,12.7653846 L81.7769312,12.7126923 L81.7926587,12.6615385 L81.8179762,12.6357692 L81.8179762,12.6357692 Z" id="Fill-3" fill="#1A1918" sketch:type="MSShapeGroup"></path>
                <path d="M31.2804894,23.4653846 C30.9398545,23.4769231 30.602672,23.5407692 30.2654894,23.5211538 C29.8707672,23.4988462 29.6225794,23.2580769 29.4764286,22.9073077 C29.3045767,22.4873077 29.2059921,22.0123077 29.1008862,21.5719231 C29.0053704,21.1553846 28.9290344,20.7457692 28.9735317,20.3196154 C29.0023016,20.0884615 29.037209,19.9192308 29.2247884,19.7596154 C29.5209259,19.5142308 29.9344444,19.6738462 30.2463095,19.4984615 C30.526336,19.3407692 30.6187831,18.9973077 30.6441005,18.6992308 C30.6885979,18.1980769 30.6345106,17.6607692 30.6091931,17.1584615 C30.5328571,15.8661538 30.6187831,14.5484615 30.4565212,13.2642308 C30.4212302,12.9676923 30.3260979,12.6276923 29.9981217,12.54 C29.3490741,12.3661538 29.3425529,11.7203846 29.3015079,11.1634615 C29.2758069,10.8142308 29.2727381,10.4026923 29.4127513,10.0742308 C29.6003307,9.62423077 30.1001587,9.39153846 30.5389947,9.25576923 C30.9655556,9.12346154 31.398254,9.00230769 31.8309524,8.88423077 C32.270172,8.76461538 32.725119,8.69923077 33.1739286,8.62230769 C33.6350132,8.54423077 34.0964815,8.47730769 34.5610185,8.40538462 C35.0128968,8.33384615 35.4647751,8.27153846 35.922791,8.22192308 C36.3493519,8.17423077 36.7785979,8.12153846 37.2082275,8.09615385 C37.7111243,8.06576923 38.2201587,8.03576923 38.722672,8.01653846 C39.1749339,7.99730769 39.6264286,8.00692308 40.0752381,8.01 C40.5240476,8.01346154 40.9694048,8.03230769 41.4147619,8.04653846 C41.8727778,8.06269231 42.3376984,8.10076923 42.7891931,8.16307692 C43.4478307,8.25230769 44.0746296,8.36730769 44.6412037,8.73884615 C45.2296429,9.12961538 45.6212963,9.92884615 45.0389947,10.5192308 C44.450172,11.1173077 43.501918,11.0184615 42.7385582,11.0184615 C42.1113757,11.0169231 41.4880291,11.0346154 40.8612302,11.0519231 C40.2597487,11.0711538 39.6582672,11.1334615 39.0537169,11.1715385 C38.493664,11.2065385 37.9370635,11.2465385 37.3739418,11.2896154 C36.794709,11.3342308 36.2124074,11.39 35.6331746,11.4476923 C35.1720899,11.4923077 34.7075529,11.5369231 34.2526058,11.6215385 C33.8705423,11.6915385 33.4217328,11.7603846 33.1290476,12.0411538 C32.9126984,12.25 32.9031085,12.5992308 32.9921032,12.8719231 C33.1674074,13.3984615 33.9629894,13.2661538 34.3826455,13.255 C35.3374206,13.2261538 36.2826058,13.0680769 37.2339286,13.0042308 C37.6727646,12.9742308 38.1089153,12.9580769 38.5446825,12.9326923 C39.0728968,12.9007692 39.5980423,12.8830769 40.1293254,12.9084615 C40.5938624,12.9311538 41.0488095,12.9853846 41.5037566,13.0792308 C42.0607407,13.1957692 42.5793651,13.4111538 43.0914683,13.6488462 C43.747037,13.8769231 43.6419312,14.7080769 43.5337566,15.2423077 C43.4766005,15.5230769 43.384537,15.77 43.1328968,15.9269231 C42.5601852,16.2811538 41.7488757,16.1915385 41.109418,16.2088462 C40.4791667,16.2269231 39.8462302,16.2823077 39.2194312,16.34 C38.2297487,16.4342308 37.2400661,16.5326923 36.253836,16.6557692 C35.6492857,16.7323077 35.0447354,16.8376923 34.4401852,16.9015385 C34.0328042,16.9457692 33.4980688,16.9046154 33.1643386,17.1934615 L33.1037302,17.2457692 L33.0592328,17.2715385 L33.0273942,17.3319231 L32.9890344,17.4119231 C32.944537,17.6669231 32.6836905,18.5076923 32.944537,18.7088462 L32.9986243,18.7342308 L33.0845503,18.7342308 C33.4155952,18.7357692 33.7431878,18.7169231 34.0742328,18.7019231 C34.576746,18.68 35.0796429,18.6592308 35.5856085,18.6180769 C36.5530423,18.5380769 37.5200926,18.4584615 38.4875265,18.3738462 C39.1173942,18.3176923 39.7664418,18.2830769 40.4028307,18.225 C41.3576058,18.1396154 42.3119974,18.0884615 43.2667725,18.05 C43.8456217,18.0261538 44.4026058,18.0357692 44.9465476,17.7946154 C45.5767989,17.5123077 46.0984921,17.0180769 46.7157011,16.6973077 C47.495172,16.2938462 48.2942063,15.9330769 49.0828836,15.5519231 C50.0503175,15.0846154 50.995119,14.5469231 51.978664,14.1130769 C52.7358862,13.7796154 53.4961772,13.4496154 54.2537831,13.1176923 C54.6197354,12.9580769 54.9948942,12.8080769 55.3447354,12.6073077 C55.5867857,12.4653846 56.2135847,12.1573077 56.0543915,11.7761538 C55.971918,11.5780769 55.7206614,11.5496154 55.5357672,11.5273077 C54.8103836,11.4396154 52.9905952,11.575 51.876627,11.7473077 C50.0725661,12.0634615 49.8213095,12.3007692 49.3184127,11.8019231 C48.9367328,11.3919231 49.0318651,10.8126923 49.0894048,10.3053846 C49.1465608,9.78384615 49.3951323,8.99423077 49.5700529,8.79807692 C50.091746,8.11192308 51.8129497,8.03230769 52.6150529,7.97307692 C53.0285714,7.94307692 53.4486111,7.93038462 53.865582,7.92692308 C54.4509524,7.92230769 55.033254,7.96230769 55.615172,7.96230769 C56.1215212,7.98461538 56.6240344,8.01653846 57.1269312,8.06730769 C57.6996429,8.125 58.3264418,8.13923077 58.8834259,8.31769231 C59.0648677,8.37692308 59.2459259,8.43730769 59.4181614,8.51884615 C59.9939418,8.78846154 60.5187037,9.14115385 60.9099735,9.645 C61.1424339,9.94307692 61.2951058,10.2861538 61.3714418,10.6546154 C61.4098016,10.8319231 61.435119,11.0057692 61.4098016,11.1857692 C61.3906217,11.3184615 61.3526455,11.5830769 61.2697884,11.6884615 L61.234881,11.7330769 C61.1550926,11.9084615 61.002037,12.0665385 60.8624074,12.1926923 C60.1815212,12.7923077 59.1887698,13.0107692 58.3678704,13.3503846 C57.9604894,13.5196154 57.5596296,13.7142308 57.1587698,13.8976923 C56.0321429,14.4130769 54.9154894,14.9488462 53.7666138,15.4161538 C52.8218122,15.8038462 51.8796958,16.2011538 50.973254,16.6746154 C50.7246825,16.8057692 50.3621825,16.9923077 50.2125794,17.2457692 C50.0629762,17.5138462 50.3875,17.5123077 50.597328,17.5169231 C50.8267196,17.525 51.0591799,17.5107692 51.2912566,17.4934615 C51.9878704,17.4369231 52.6848677,17.3703846 53.3849339,17.2934615 C54.0976587,17.2138462 54.8165212,17.15 55.5296296,17.0592308 C56.2009259,16.9730769 56.8722222,16.8857692 57.5404497,16.8119231 C58.2723545,16.7338462 58.9850794,16.7069231 59.7169841,16.7053846 C60.4519577,16.7053846 61.1677513,16.7146154 61.8935185,16.8361538 L62.0016931,16.8534615 L62.1923413,16.8630769 C62.4980688,16.8630769 62.8191402,16.8219231 62.9752646,16.5138462 C63.2295899,16.0157692 63.3761243,15.415 63.5606349,14.8869231 C63.796164,14.2023077 64.0408995,13.5196154 64.2860185,12.8384615 C64.3178571,12.7442308 64.3531481,12.6503846 64.3880556,12.5561538 C64.6676984,11.7857692 64.9415873,11.0119231 65.2469312,10.2511538 C65.3677646,9.94307692 65.495119,9.63846154 65.5937037,9.32115385 C65.6669709,9.08346154 65.7018783,8.84269231 65.8131217,8.61615385 C65.9980159,8.25230769 66.3321296,8.01807692 66.7072884,8.28269231 C67.0099471,8.49653846 67.2167063,8.86807692 67.391627,9.19038462 C67.5726852,9.53 67.7291931,9.86846154 67.8147354,10.2465385 C67.9006614,10.6276923 67.8085979,10.9657692 67.6939021,11.3311538 C67.5761376,11.7057692 67.4234656,12.0776923 67.324881,12.4588462 C67.1116005,13.2773077 67.9133201,13.9376923 68.5305291,14.3107692 C69.0871296,14.6488462 69.7273545,14.8773077 70.3253836,15.1307692 C70.7738095,15.3203846 71.222619,15.52 71.6963624,15.6138462 C71.9798413,15.6684615 72.3392725,15.7257692 72.5905291,15.5453846 C72.9975265,15.2488462 73.1218122,14.67 73.2587566,14.2134615 C73.4244709,13.6519231 73.5479894,13.0761538 73.6726587,12.5034615 C73.7804497,12.0296154 73.8537169,11.5480769 73.9047354,11.0646154 C73.946164,10.6834615 73.9810714,10.3007692 74.0037037,9.91923077 C74.028254,9.42307692 73.991045,8.94461538 73.9841402,8.45038462 C73.9841402,8.13115385 74.0412963,7.71807692 74.2645503,7.46923077 C74.5507143,7.14038462 75.0474735,7.30961538 75.2887566,7.62230769 C75.2952778,7.62884615 75.3777513,7.73576923 75.3777513,7.73576923 C75.5246693,7.98461538 75.6324603,8.25730769 75.7149339,8.53461538 C75.8580159,9.03230769 75.9381878,9.54461538 75.9892063,10.0580769 C76.0333201,10.4823077 76.0617063,10.9065385 76.0782011,11.3326923 C76.1284524,12.8019231 76.0271825,14.2742308 75.8296296,15.7288462 C75.721455,16.5138462 75.5499868,17.2776923 75.3846561,18.05 C75.2887566,18.4746154 75.215873,18.9111538 75.0344312,19.31 C74.9132143,19.5715385 74.7448148,19.825 74.5533995,20.0392308 C74.461336,20.1430769 74.3596825,20.2303846 74.2449868,20.3038462 C73.8471958,20.5546154 73.3285714,20.5446154 72.8770767,20.5 C72.247209,20.4411538 71.6426587,20.2780769 71.0507672,20.0596154 C70.6752249,19.9242308 70.3127249,19.7773077 69.9529101,19.6065385 C69.5869577,19.4315385 69.2179365,19.2557692 68.8646429,19.055 C68.508664,18.8523077 68.1615079,18.6288462 67.830463,18.3911538 C67.5124603,18.1665385 67.2009788,17.9157692 66.9301587,17.6369231 C66.6915608,17.3911538 66.5135714,17.075 66.2907011,16.815 C66.0517196,16.5407692 65.8675926,16.4484615 65.7114683,16.8261538 C65.616336,17.0719231 65.5653175,17.3303846 65.5077778,17.5888462 C65.4122619,18.0403846 65.2787698,18.4873077 65.1387566,18.9288462 C65.0052646,19.3642308 64.4291005,20.5734615 63.8023016,20.0103846 C63.5989947,19.8284615 63.4524603,19.5938462 63.1467328,19.5973077 C62.8352513,19.6019231 62.5391138,19.7296154 62.2368386,19.7965385 C61.918836,19.8684615 61.587791,19.9065385 61.2632672,19.9719231 C60.649127,20.0976923 60.0349868,20.2415385 59.4242989,20.3646154 C59.016918,20.4442308 58.609537,20.5015385 58.2052249,20.5719231 C57.8143386,20.6388462 57.4192328,20.6896154 57.0248942,20.7492308 C56.6178968,20.8096154 56.2135847,20.875 55.8092725,20.9226923 C55.1732672,21.0023077 54.5399471,21.0788462 53.906627,21.1461538 C53.3975926,21.2134615 52.8920106,21.2642308 52.386045,21.3230769 C51.9625529,21.3696154 51.5425132,21.4138462 51.1194048,21.4557692 C50.4097487,21.5242308 49.7066138,21.5861538 48.9942725,21.61 C47.9217328,21.6484615 46.8112169,21.7123077 45.7547884,21.4988462 C45.5192593,21.4523077 45.169418,21.4238462 44.991045,21.2480769 C44.8640741,21.1238462 44.9657275,20.9115385 44.8702116,20.765 L44.8544841,20.7392308 L44.8130556,20.6946154 L44.7746958,20.6676923 L44.7332672,20.65 L44.6477249,20.65 L44.6028439,20.6676923 L44.552209,20.6853846 L44.507328,20.7203846 L44.4183333,20.7823077 L44.3611772,20.8507692 L44.3166799,20.9292308 L44.2909788,21.0169231 C44.0619709,21.7588462 43.2855688,22.0376923 42.5793651,22.1288462 L31.2804894,23.4653846" id="Fill-4" fill="#1A1918" sketch:type="MSShapeGroup"></path>
                <path d="M136.76914,17.71 C135.286534,17.8173077 133.889087,18.0688462 132.383849,17.9253846 C131.897831,17.8776923 131.06082,17.8373077 130.65037,17.5680769 C129.447791,16.7738462 133.660847,15.3588462 134.179087,15.1738462 C135.639444,14.6507692 138.583175,13.7988462 138.583175,13.7988462 C138.583175,13.7988462 141.347765,13.1096154 141.430622,11.6165385 C141.531892,9.80461538 139.673743,8.98461538 138.251746,8.53153846 C137.659854,8.39923077 137.077937,8.29884615 136.476071,8.23807692 C136.072526,8.19653846 135.661693,8.17923077 135.254312,8.16461538 C134.487884,8.13769231 133.740251,8.21230769 132.975741,8.305 C132.193585,8.39923077 130.529537,8.44846154 130.28787,9.43461538 C130.16627,9.93692308 129.599696,10.9723077 130.074206,11.4269231 C130.57672,11.91 131.394934,11.7092308 132.012526,11.6484615 C132.864881,11.5638462 133.707646,11.4046154 134.557315,11.32 C135.184497,11.2576923 136.001944,11.1188462 136.5175,11.58 C137.150437,12.1526923 135.470661,12.695 135.136548,12.8384615 C133.867606,13.3807692 132.540741,13.77 131.267579,14.3015385 C130.074206,14.7988462 128.877765,15.2776923 127.713161,15.8357692 C127.178426,16.0907692 126.679365,16.4053846 126.176852,16.7115385 L125.934802,16.5453846 L124.467923,16.7019231 C124.467923,16.7019231 123.000661,16.8234615 122.997976,16.8234615 C122.014815,16.9046154 121.018228,16.9330769 120.032381,16.9796154 C119.539458,16.9969231 118.766124,17.0165385 118.37754,16.6476923 C117.528638,15.8392308 118.001997,14.7192308 118.562434,13.9376923 C119.17619,13.0873077 120.038519,12.4573077 120.923095,11.9215385 C121.518056,11.5623077 122.176693,11.2688462 122.844921,11.0676923 C123.296799,10.9307692 123.765172,10.8173077 124.235463,10.7473077 C124.302209,10.8780769 124.378545,11.0088462 124.452196,11.1365385 C124.490172,11.2096154 125.588029,10.7473077 125.692751,10.6930769 C126.029934,10.5176923 126.500992,10.165 126.510966,9.73923077 C126.526693,9.22076923 126.080952,8.70384615 125.677024,8.44538462 C125.225146,8.15653846 124.712659,8.06076923 124.181376,8.05615385 C123.605595,8.04807692 123.026362,8.08346154 122.459788,8.15846154 C122.058929,8.21230769 121.664974,8.30192308 121.27332,8.415 C120.624272,8.605 120.007063,8.86153846 119.417857,9.19192308 C118.635317,9.63076923 117.871574,10.2176923 117.258201,10.8719231 C116.965132,11.1826923 116.700833,11.5288462 116.481032,11.8957692 C116.197937,12.3646154 115.991177,12.8830769 115.825463,13.4046154 C115.377421,14.8484615 115.513981,16.6461538 116.163413,18.0084615 C116.608386,18.9446154 117.299246,19.7569231 118.183439,20.3023077 C119.297407,20.9896154 120.706746,21.2165385 121.982593,20.9707692 C122.517712,20.87 122.991839,20.7296154 123.484762,20.5288462 C124.006455,20.3165385 124.515873,20.1603846 125.002659,19.8776923 C125.097791,19.8265385 126.138492,19.2288462 126.198333,19.3084615 C126.360979,19.5207692 126.456111,19.7807692 126.631415,19.9834615 C126.800198,20.1796154 127.013479,20.3580769 127.216786,20.5111538 C127.646799,20.8346154 128.133585,20.9623077 128.657963,21.025 C129.972169,21.1826923 131.305939,21.2626923 132.629735,21.2803846 C133.685397,21.2946154 134.754484,21.2223077 135.804775,21.1238462 C136.486045,21.06 137.166931,20.9707692 137.844365,20.8876923 C139.569021,20.6753846 140.994854,20.2907692 142.862593,19.4826923 C143.743717,19.0661538 144.291111,18.5315385 144.628294,18.1361538 C144.430741,18.0119231 144.202116,17.9030769 143.985384,17.8157692 C142.62668,17.2680769 141.076944,17.2457692 139.632698,17.4311538 C138.967156,17.5153846 138.302765,17.5807692 137.637606,17.64 C137.348373,17.6669231 137.058373,17.6896154 136.76914,17.71" id="Fill-5" fill="#1A1918" sketch:type="MSShapeGroup"></path>
                <path d="M113.754802,19.2573077 C113.770529,19.0042308 113.742143,18.75 113.668492,18.5542308 C113.474392,18.0434615 112.936587,17.525 112.402619,17.4261538 C111.918519,17.3388462 111.336217,17.4311538 110.941495,17.7419231 C110.728598,17.9111538 110.496521,18.1838462 110.384894,18.4376923 C110.139775,18.9942308 110.165476,19.8207692 110.524907,20.3134615 C111.132526,21.1476923 112.417963,21.1476923 113.133757,20.4711538 C113.47746,20.1488462 113.719511,19.7376923 113.754802,19.2573077" id="Fill-6" fill="#1A1918" sketch:type="MSShapeGroup"></path>
            </g>
        </g>
    </g>
</svg>